<?xml version="1.0" encoding="UTF-8"?>
<svg id="logosandtypes_com" data-name="logosandtypes com" xmlns="http://www.w3.org/2000/svg" viewBox="0 0 150 150">
  <defs>
    <style>
      .cls-1 {
        fill: none;
      }

      .cls-2 {
        fill: #f7941d;
      }
    </style>
  </defs>
  <path id="Layer_3" data-name="Layer 3" class="cls-1" d="M0,0H150V150H0V0Z"/>
  <path class="cls-2" d="M72.52,61.07l-11.53-7,12.05-5.58c1.7-.8,3.65-.8,5.36,0l12.05,5.58-11.53,7c-1.99,1.19-4.39,1.19-6.38,0Z"/>
  <path class="cls-2" d="M14.13,14.87v123.14h123.14V14.87H14.13ZM116.52,79.87l-34.83,35.07c-3.37,3.41-8.6,3.41-11.96,0l-34.83-35.05c-.23-.23-.29-.55-.21-.86l10.47-32.02c.06-.23,.25-.41,.45-.49l27.13-10.57c1.91-.74,4.02-.74,5.93,0l27.11,10.57c.23,.08,.39,.27,.47,.49l3.14,9.58c.1,.35-.02,.72-.29,.92l-29,21.08c-2.63,1.91-6.18,1.91-8.8,0l-18.29-13.28c-.64-.45-1.54-.1-1.7,.66l-1.52,7c-.23,1.01,.14,2.05,.92,2.71l19.8,16.52c3,2.5,7.37,2.5,10.36-.02l31.52-26.29,4.29,13.16c.1,.29,.02,.62-.18,.82Z"/>
</svg>