<svg viewBox="0 0 512 512" xmlns="http://www.w3.org/2000/svg" fill-rule="evenodd" clip-rule="evenodd" stroke-linejoin="round" stroke-miterlimit="2"><path d="M496 479.546H88.278c-13.853 0-25.081-11.23-25.081-25.083v-335.96H496v361.043z" fill="#0b3c8f" fill-rule="nonzero"/><path d="M94.276 32.454h345.501c13.853 0 25.083 11.23 25.083 25.083v335.96H94.276V32.454z" fill="#1a6afe" fill-rule="nonzero"/><path d="M16 444.29l78.277-50.794V32.456L16 83.252v361.04z" fill="#699bea" fill-rule="nonzero"/><path d="M240.203 211.807h30.11a42.521 42.521 0 0025.997-7.142 23.996 23.996 0 009.599-20.397v-14.341a23.829 23.829 0 00-9.599-20.34 42.506 42.506 0 00-25.998-7.2h-30.11v69.42zm113.357 80.675v23.484a38.448 38.448 0 01-15.54 2.914 37.888 37.888 0 01-20.34-5.314 42.454 42.454 0 01-14.914-17.655l-29.653-57.135h-32.91v77.19h-36.168V115.133h67.706a83.462 83.462 0 0151.08 14.456 46.163 46.163 0 0119.255 39.023v16.626a43.643 43.643 0 01-9.37 27.54 61.33 61.33 0 01-25.654 18.97l26.683 51.08a18.052 18.052 0 0017.14 9.769l2.685-.115z" fill="#fff" fill-rule="nonzero"/></svg>